<?xml version="1.0" standalone="no"?><!DOCTYPE svg PUBLIC "-//W3C//DTD SVG 1.1//EN" "http://www.w3.org/Graphics/SVG/1.1/DTD/svg11.dtd"><svg class="icon" width="200px" height="200.00px" viewBox="0 0 1024 1024" version="1.1" xmlns="http://www.w3.org/2000/svg"><path d="M512 512m-512 0a512 512 0 1 0 1024 0 512 512 0 1 0-1024 0Z" fill="#3AD0F9" /><path d="M509.6 171.2C387.2 171.2 288 269.6 288 392s99.2 221.6 221.6 221.6C632 613.6 731.2 514.4 731.2 392c-0.8-122.4-100-220.8-221.6-220.8z m0 386.4C417.6 557.6 344 483.2 344 392c0-91.2 74.4-165.6 165.6-165.6 91.2 0 165.6 74.4 165.6 165.6-0.8 91.2-74.4 165.6-165.6 165.6z" fill="#FFFFFF" /><path d="M346.4 392c0-17.6 2.4-35.2 7.2-51.2h-59.2c-4 16-5.6 33.6-5.6 51.2 0 36.8 8.8 71.2 24.8 100.8h64.8c-20.8-28-32-63.2-32-100.8zM674.4 392c0 37.6-12 72.8-31.2 100.8h63.2A216 216 0 0 0 731.2 392c0-17.6-2.4-34.4-5.6-51.2h-57.6c4 16.8 6.4 33.6 6.4 51.2z" fill="#EAEAEA" /><path d="M508 621.6c-125.6 0-228-104-228-231.2C280 263.2 382.4 160 508 160S736 263.2 736 390.4 633.6 621.6 508 621.6z m0-445.6C391.2 176 296 272 296 390.4s95.2 214.4 212 214.4S720 508.8 720 390.4 624.8 176 508 176z m0 384C412.8 560 336 483.2 336 388S412.8 216 508 216 680 292.8 680 388 603.2 560 508 560z m0-328C421.6 232 352 301.6 352 388S421.6 544 508 544 664 474.4 664 388 594.4 232 508 232z" fill="#0C508E" /><path d="M779.2 460c0-32-26.4-59.2-59.2-59.2H301.6c-32 0-59.2 26.4-59.2 59.2v157.6c0 95.2 78.4 223.2 269.6 223.2 191.2 0 267.2-104 267.2-223.2V460z" fill="#FBD000" /><path d="M560 566.4c0-27.2-20.8-46.4-48-46.4-28 0-48 20-48 46.4 0 18.4 8.8 35.2 32 43.2V648c0 11.2 6.4 23.2 19.2 23.2 12.8 0 20-12 20-23.2v-38.4c15.2-8 24.8-24 24.8-43.2z" fill="#FFFFFF" /><path d="M515.2 680c-17.6 0-27.2-16-27.2-31.2v-33.6c-20.8-8.8-32-25.6-32-48.8 0-32 23.2-54.4 56-54.4 32 0 56 23.2 56 54.4 0 20-9.6 37.6-24.8 47.2V648c0 16-11.2 32-28 32zM512 527.2c-23.2 0-40 16-40 39.2 0 18.4 6.4 27.2 24 33.6 3.2 0.8 8 6.4 8 9.6v39.2c0 6.4 3.2 16 11.2 16 8 0 12.8-10.4 12.8-16.8v-40c0-2.4 5.6-6.4 8-8 12.8-7.2 16-17.6 16-33.6 0-22.4-16.8-39.2-40-39.2z" fill="#0C508E" /><path d="M384 248c-2.4 0-4.8-0.8-6.4-3.2-3.2-3.2-2.4-8 0.8-11.2 17.6-14.4 36.8-25.6 58.4-33.6 4-1.6 8.8 0.8 10.4 4.8 1.6 4-0.8 8.8-4.8 10.4-19.2 7.2-37.6 17.6-53.6 31.2-0.8 0.8-3.2 1.6-4.8 1.6zM688 328c-3.2 0-5.6-1.6-7.2-4.8-28-74.4-94.4-122.4-168.8-122.4-4 0-8-4-8-8 0-4.8 3.2-8 8-8 80.8 0 152.8 52 184 132 1.6 4 0 8.8-4 10.4-1.6 0.8-2.4 0.8-4 0.8z" fill="#0C508E" opacity=".5" /><path d="M263.2 232c0-3.2-3.2-6.4-8-7.2l-15.2-2.4c-4-0.8-8.8-4.8-8.8-8.8l-2.4-15.2c-0.8-4-4-8-7.2-8s-6.4 3.2-7.2 8l-2.4 15.2c-0.8 4-4.8 8.8-8.8 8.8l-15.2 2.4c-4 0.8-8 4-8 7.2s3.2 6.4 8 7.2l15.2 2.4c4 0.8 8.8 4.8 8.8 8.8l2.4 15.2c0.8 4 4 8 7.2 8s6.4-3.2 7.2-8l2.4-16.8c0.8-4 4.8-8 8.8-8.8l14.4-0.8c5.6-0.8 8.8-4 8.8-7.2zM937.6 606.4c0-3.2-3.2-6.4-8-7.2l-15.2-2.4c-4-0.8-8.8-4.8-8.8-8.8l-2.4-15.2c-0.8-4-4-8-7.2-8s-6.4 3.2-7.2 8l-2.4 15.2c-0.8 4-4.8 8.8-8.8 8.8l-15.2 2.4c-4 0.8-8 4-8 7.2s3.2 6.4 8 7.2l15.2 2.4c4 0.8 8.8 4.8 8.8 8.8l2.4 15.2c0.8 4 4 8 7.2 8s6.4-3.2 7.2-8l2.4-16.8c0.8-4 4.8-8 8.8-8.8l14.4-0.8c4.8-1.6 8.8-4 8.8-7.2zM753.6 870.4c0-3.2-3.2-6.4-8-7.2l-15.2-2.4c-4-0.8-8.8-4.8-8.8-8.8l-2.4-15.2c-0.8-4-4-8-7.2-8s-6.4 3.2-7.2 8l-2.4 15.2c-0.8 4-4.8 8.8-8.8 8.8l-15.2 2.4c-4 0.8-8 4-8 7.2s3.2 6.4 8 7.2l15.2 2.4c4 0.8 8.8 4.8 8.8 8.8l2.4 15.2c0.8 4 4 8 7.2 8s6.4-3.2 7.2-8l2.4-16.8c0.8-4 4.8-8 8.8-8.8l14.4-0.8c4.8-1.6 8.8-4 8.8-7.2zM840 344c-17.6 0-32-14.4-32-32s14.4-32 32-32 32 14.4 32 32-14.4 32-32 32z m0-48.8c-9.6 0-16.8 8-16.8 16.8 0 9.6 8 16.8 16.8 16.8 9.6 0 16.8-8 16.8-16.8 0-9.6-7.2-16.8-16.8-16.8zM136 616c-17.6 0-32-14.4-32-32s14.4-32 32-32 32 14.4 32 32-14.4 32-32 32z m0-48.8c-9.6 0-16.8 8-16.8 16.8 0 9.6 8 16.8 16.8 16.8 9.6 0 16.8-8 16.8-16.8 0-9.6-7.2-16.8-16.8-16.8zM368 936c-17.6 0-32-14.4-32-32s14.4-32 32-32 32 14.4 32 32-14.4 32-32 32z m0-48.8c-9.6 0-16.8 8-16.8 16.8 0 9.6 8 16.8 16.8 16.8 9.6 0 16.8-8 16.8-16.8 0-9.6-7.2-16.8-16.8-16.8z" fill="#FFFFFF" /><path d="M512.8 768C324.8 768 248 640 248 545.6v72C248 712 324.8 840 512.8 840 701.6 840 776 736 776 617.6v-72C776 664.8 701.6 768 512.8 768z" fill="#F4B10B" /><path d="M736 509.6c0-3.2-3.2-6.4-8-7.2l-38.4-6.4c-4-0.8-8.8-4.8-9.6-9.6l-6.4-38.4c-0.8-4-4-8-7.2-8s-6.4 3.2-7.2 8l-6.4 38.4c-0.8 4-4.8 8.8-9.6 9.6l-38.4 6.4c-4 0.8-8 4-8 7.2s3.2 6.4 8 7.2l37.6 4.8c4 0.8 8.8 4.8 9.6 8.8l7.2 40c0.8 4 4 8 7.2 8s6.4-3.2 7.2-8l7.2-40.8c0.8-4 4.8-8 9.6-8.8l37.6-4.8c4 0 8-3.2 8-6.4z" fill="#FFFFFF" /><path d="M512 848c-187.2 0-272-119.2-272-230.4V460c0-38.4 26.4-68 61.6-68H720c36 0 64 29.6 64 68v157.6c0 69.6-26.4 230.4-272 230.4zM301.6 408C272 408 256 434.4 256 460v157.6c0 74.4 53.6 214.4 256 214.4 162.4 0 256-78.4 256-214.4V460c0-28.8-20.8-52-48-52H301.6z" fill="#0C508E" /><path d="M600 448H344c-4 0-8-3.2-8-8s3.2-8 8-8h256c4 0 8 3.2 8 8s-3.2 8-8 8zM736 616c-4.8 0-8-3.2-8-8v-40c0-4.8 3.2-8 8-8s8 3.2 8 8v40c0 4.8-3.2 8-8 8z" fill="#FFFFFF" /></svg>